<svg id="Layer_1" enable-background="new 0 0 512 512" height="512" viewBox="0 0 512 512" width="512" xmlns="http://www.w3.org/2000/svg"><g><circle cx="52.5" cy="399" fill="#7a6d79" r="45"/><circle cx="459.5" cy="399" fill="#918291" r="45"/><path d="m459.5 414h-335.846v-30h335.846c8.284 0 15 6.716 15 15 0 8.284-6.716 15-15 15z" fill="#f37c7c"/><circle cx="459.5" cy="399" fill="#a8d3d8" r="15"/><path d="m67.5 285.077h-30v-192.327c0-13.669 11.081-24.75 24.75-24.75h5.25z" fill="#f37c7c"/><path d="m91 98h-30c-8.284 0-15-6.716-15-15 0-8.284 6.716-15 15-15h30c8.284 0 15 6.716 15 15 0 8.284-6.716 15-15 15z" fill="#918291"/><path d="m52.5 413.981c-8.284 0-15-6.716-15-15v-113.904h30v113.904c0 8.284-6.716 15-15 15z" fill="#f37c7c"/><circle cx="52.5" cy="399" fill="#a8d3d8" r="15"/><path d="m76.5 295.615h-48c-3.314 0-6-2.686-6-6v-18c0-3.314 2.686-6 6-6h48c3.314 0 6 2.686 6 6v18c0 3.314-2.686 6-6 6z" fill="#a8d3d8"/><path d="m76.5 265.615h-30c3.314 0 6 2.687 6 6v18c0 3.314-2.686 6-6 6h30c3.314 0 6-2.686 6-6v-18c0-3.313-2.686-6-6-6z" fill="#8ebac5"/><path d="m459.5 346.5c-20.396 0-38.825 11.859-47.429 30h-13.761c8.577-26.046 33.148-44.23 61.19-44.23h27.192c4.143 0 7.5-3.357 7.5-7.5s-3.357-7.5-7.5-7.5h-27.192c-36.225 0-67.748 24.627-76.813 59.23h-254.786c-7.418-25.098-27.008-45.193-52.901-52.866v-20.519h1.5c7.444 0 13.5-6.056 13.5-13.5v-18c0-7.444-6.056-13.5-13.5-13.5h-1.5v-152.615h16c12.406 0 22.5-10.094 22.5-22.5s-10.094-22.5-22.5-22.5h-30c-2.204 0-4.334.324-6.348.918-14.535 3.494-24.652 16.315-24.652 31.332v33.02c0 4.143 3.357 7.5 7.5 7.5s7.5-3.357 7.5-7.5v-26.97c3.863 3.912 9.144 6.417 15 6.675v152.641h-15v-97.346c0-4.143-3.357-7.5-7.5-7.5s-7.5 3.357-7.5 7.5v97.346h-1.5c-7.444 0-13.5 6.056-13.5 13.5v18c0 7.444 6.056 13.5 13.5 13.5h1.5v20.508c-4.844 1.444-9.538 3.346-13.997 5.688-3.667 1.926-5.078 6.459-3.152 10.127 1.341 2.555 3.948 4.015 6.646 4.015 1.175 0 2.367-.277 3.48-.862 2.27-1.192 4.617-2.244 7.022-3.152v12.134c-18.139 8.601-29.999 27.03-29.999 47.426 0 28.948 23.552 52.5 52.5 52.5s52.5-23.552 52.5-52.5c0-20.396-11.86-38.825-30-47.429v-12.14c24.585 9.206 41.15 32.667 41.15 59.569 0 7.844-1.404 15.491-4.175 22.729-1.48 3.869.456 8.205 4.324 9.686.882.337 1.788.497 2.679.497 3.019 0 5.863-1.835 7.007-4.821.705-1.842 1.32-3.709 1.881-5.591h226.416c4.143 0 7.5-3.357 7.5-7.5s-3.357-7.5-7.5-7.5h-223.128v-15h307.136c-.833 2.348-1.29 4.871-1.29 7.5s.458 5.152 1.29 7.5h-49.379c-4.143 0-7.5 3.357-7.5 7.5s3.357 7.5 7.5 7.5h23.16c8.604 18.141 27.032 30 47.429 30 28.948 0 52.5-23.552 52.5-52.5s-23.552-52.5-52.5-52.5zm-406-263.5c0-3.293 2.136-6.09 5.092-7.096 1.166-.263 2.393-.404 3.658-.404h28.75c4.136 0 7.5 3.364 7.5 7.5s-3.364 7.5-7.5 7.5h-30c-4.136 0-7.5-3.364-7.5-7.5zm-1 323.48c-4.132 0-7.494-3.359-7.5-7.49.005-4.131 3.367-7.49 7.5-7.49s7.494 3.359 7.5 7.49c-.006 4.132-3.368 7.49-7.5 7.49zm-22.5-133.365h45v15h-45zm30 30v74.675c-2.347-.833-4.871-1.29-7.5-1.29s-5.153.458-7.5 1.29v-74.675zm30 95.885c0 20.678-16.822 37.5-37.5 37.5s-37.5-16.822-37.5-37.5c0-11.996 5.741-23.04 15-29.998v29.978.01s0 .006 0 .01c0 12.406 10.094 22.5 22.5 22.5s22.5-10.094 22.5-22.5c0-.003 0-.006 0-.01s0-.006 0-.01v-29.978c9.259 6.958 15 18.002 15 29.998zm362 0c0-4.136 3.364-7.5 7.5-7.5s7.5 3.364 7.5 7.5-3.364 7.5-7.5 7.5-7.5-3.364-7.5-7.5zm7.5 37.5c-11.996 0-23.04-5.742-29.997-15h29.997c12.406 0 22.5-10.094 22.5-22.5s-10.094-22.5-22.5-22.5h-29.998c6.958-9.259 18.001-15 29.998-15 20.678 0 37.5 16.822 37.5 37.5s-16.822 37.5-37.5 37.5z"/></g></svg>